PathFileType	4	(X/Y/Z)	..\data\2014014\dynamic\2014014_C5_04.trc
DataRate	CameraRate	NumFrames	NumMarkers	Units	OrigDataRate	OrigDataStartFrame	OrigNumFrames
100.000000	100.000000	4	52	mm	100.000000	78	157
Frame#	Time	L_IAS			L_IPS			R_IPS			R_IAS			L_FTC			L_FLE			L_FME			L_FAX			L_TTC			L_FAL			L_TAM			L_FCC			L_FM1			L_FM2			L_FM5			R_FTC			R_FLE			R_FME			R_FAX			R_TTC			R_FAL			R_TAM			R_FCC			R_FM1			R_FM2			R_FM5			CV7			TV10			SXS			SJN			L_SIA			L_SRS			L_SAA			L_SAE			L_HLE			L_HME			L_UOA			L_RSP			L_UHE			L_HM2			L_HM5			R_SIA			R_SRS			R_SAA			R_SAE			R_HLE			R_HME			R_UOA			R_RSP			R_UHE			R_HM2			R_HM5			
		X1	Y1	Z1	X2	Y2	Z2	X3	Y3	Z3	X4	Y4	Z4	X5	Y5	Z5	X6	Y6	Z6	X7	Y7	Z7	X8	Y8	Z8	X9	Y9	Z9	X10	Y10	Z10	X11	Y11	Z11	X12	Y12	Z12	X13	Y13	Z13	X14	Y14	Z14	X15	Y15	Z15	X16	Y16	Z16	X17	Y17	Z17	X18	Y18	Z18	X19	Y19	Z19	X20	Y20	Z20	X21	Y21	Z21	X22	Y22	Z22	X23	Y23	Z23	X24	Y24	Z24	X25	Y25	Z25	X26	Y26	Z26	X27	Y27	Z27	X28	Y28	Z28	X29	Y29	Z29	X30	Y30	Z30	X31	Y31	Z31	X32	Y32	Z32	X33	Y33	Z33	X34	Y34	Z34	X35	Y35	Z35	X36	Y36	Z36	X37	Y37	Z37	X38	Y38	Z38	X39	Y39	Z39	X40	Y40	Z40	X41	Y41	Z41	X42	Y42	Z42	X43	Y43	Z43	X44	Y44	Z44	X45	Y45	Z45	X46	Y46	Z46	X47	Y47	Z47	X48	Y48	Z48	X49	Y49	Z49	X50	Y50	Z50	X51	Y51	Z51	X52	Y52	Z52	

79	0.78	-166.6487579345704	997.2413330078127	128.5733489990234	-372.6912231445313	1019.662658691406	208.9509429931641	-373.6494140625001	1020.602661132813	311.7673950195312	-170.3328399658204	1002.136352539063	383.6310424804688	-248.2622680664063	898.4605712890627	61.93277359008788	-135.6316070556641	513.6016845703126	59.99475479125977	-103.5224533081055	496.992401123047	193.6263885498047	-179.1929626464844	472.593963623047	64.49856567382811	-113.581283569336	422.1940307617189	100.9884719848633	-421.4988098144532	205.2933654785157	139.8601837158203	-363.1001892089844	203.3139343261719	225.4802551269531	-476.0168457031251	194.0425872802735	212.0216064453125	-330.7731323242188	59.81629943847658	196.5582580566407	-323.1925048828126	80.97120666503908	142.7629089355469	-380.6766052246094	100.1449127197266	100.157829284668	-236.8229827880861	901.0676269531252	444.7987060546876	-229.2728271484376	486.3687133789064	362.3953247070313	-201.365692138672	498.8844299316407	236.4073486328125	-248.5435028076173	432.1089172363282	366.4813537597656	-180.4519653320313	425.5759887695314	317.4916076660157	-280.4725952148439	59.4359703063965	340.1611938476562	-247.2042999267579	89.00213623046876	245.3869018554688	-320.2126464843751	22.61662673950196	278.1324768066406	-117.0204696655274	21.9310474395752	250.9921264648438	-113.2994079589844	38.30848693847657	309.7579345703126	-157.2991485595704	18.57976913452149	368.3133544921876	-303.9825134277345	1543.965698242188	276.2148742675781	-407.3578186035158	1303.621337890625	253.9491271972656	-136.7266235351563	1263.124633789063	262.4234924316407	-180.1709289550782	1446.463623046875	282.3145751953126	-420.8105773925782	1338.745727539063	142.6591491699218	-376.5080871582032	1485.427001953125	159.1998901367187	-332.4305725097657	1490.726684570313	98.1261520385742	-283.2275390625001	1488.714233398438	72.58165740966795	-307.2106933593751	1155.242919921875	-38.95515441894536	-353.0204467773438	1144.6044921875	44.76798629760739	-350.8422851562501	1133.849609375	-14.09194278717046	-206.0526123046876	904.4664306640627	13.52402210235594	-274.8721313476563	898.1235961914065	-46.00167083740239	-173.056396484375	821.6461181640627	1.847642064094523	-274.5593872070313	813.9605712890627	-49.288745880127	-431.2315979003908	1322.76708984375	372.2663879394531	-375.911590576172	1460.681274414063	392.0540161132813	-340.612274169922	1444.158935546875	459.9604797363282	-294.6583557128907	1440.073608398438	482.8756103515626	-302.696502685547	1104.682006835938	561.4688110351564	-324.1479797363282	1088.790283203125	461.7508239746094	-342.5783996582032	1080.177368164063	529.7358398437501	-166.4119873046876	876.6950683593752	510.7465209960939	-232.9763641357423	863.7354125976565	575.0435180664064	-119.434799194336	792.8881835937502	532.2853393554689	-224.8533172607423	768.1094360351565	573.1223754882814	
80	0.79	-153.0807495117188	999.3984375000002	129.9355316162109	-359.3404846191407	1021.26025390625	208.8625793457031	-360.5405578613282	1021.770568847656	312.0115966796875	-157.8535766601563	1002.4287109375	384.5879821777345	-233.1194305419922	900.9392700195315	62.19318771362303	-113.3250045776368	517.3120117187501	62.02477264404297	-81.47566986083989	502.2639465332032	195.4449005126954	-155.1772918701172	473.9029846191407	66.32830047607422	-88.15085601806643	426.5352478027345	103.1484603881836	-385.8341674804689	194.8410949707032	139.8875579833984	-328.1211242675782	196.3062286376954	226.1803283691407	-440.9371643066407	180.2763366699219	211.8244476318359	-286.0558166503907	55.84270095825197	197.5309295654297	-279.7848815917969	77.56439208984376	143.9136047363281	-338.2942199707032	92.39273071289064	100.8412780761719	-225.4057922363282	900.966979980469	444.8641967773439	-226.5599517822267	486.489471435547	362.0016174316407	-197.5156555175782	498.5014648437501	236.1211395263672	-246.5677337646486	432.5289611816407	365.908203125	-178.2053527832032	425.1551818847657	317.3897399902344	-280.5865173339845	59.71789550781251	339.8947143554688	-246.6709747314454	89.23510742187501	245.3857574462891	-320.1436462402345	23.02216911315918	277.8440246582031	-116.8824768066407	21.76403045654297	251.1221313476563	-113.1309280395509	38.05097961425782	309.8982238769532	-157.2858428955079	18.30712509155274	368.4440612792969	-290.3302307128907	1544.871704101563	276.5802917480469	-393.8727111816408	1304.433959960938	254.9160614013672	-123.3662490844727	1264.0419921875	262.9214782714844	-166.6833953857422	1447.426025390625	282.5715942382813	-407.6668090820314	1339.529418945313	143.6615142822265	-363.2059631347657	1486.074096679688	160.0064849853515	-319.4146423339844	1491.381958007813	98.77217864990233	-270.3623962402344	1489.306396484375	72.96275329589842	-296.8969726562501	1155.906494140625	-37.80772399902348	-342.5894470214844	1145.895629882813	46.05016326904293	-340.7758178710938	1135.427734375	-12.81771850585942	-203.2701568603516	902.0498046875002	13.48017787933347	-271.5390014648438	898.3706665039065	-46.67232513427739	-172.4520874023438	818.2166137695315	1.712666869163493	-273.8319396972657	814.156188964844	-50.47437667846685	-417.3200683593752	1324.162963867188	373.8366394042969	-362.0289611816407	1461.888061523438	392.7750854492188	-326.5417785644532	1445.521240234375	460.6201171875001	-280.5108642578126	1441.560546875	483.3453063964844	-285.6380615234376	1106.182373046875	562.3021240234376	-308.5320129394532	1090.086303710938	463.1124267578126	-325.8500366210939	1081.285400390625	531.0597534179689	-147.1717681884766	879.7926025390627	510.7798156738282	-213.183563232422	866.039978027344	575.4853515625001	-99.0113525390626	796.5087890625002	531.9553833007814	-203.9348449707032	770.4428710937502	573.4135742187501	
81	0.8	-139.5040283203126	1001.143676757813	131.3516998291016	-346.0025329589844	1022.497253417969	208.5811157226563	-347.440399169922	1022.621337890625	312.0943603515625	-145.4526367187501	1002.478210449219	385.5689086914064	-217.7232666015626	903.081970214844	62.39962768554686	-91.63874053955081	520.4326782226564	64.29051971435547	-60.43397903442386	507.0042419433595	197.4866333007813	-131.6389770507813	474.4642639160157	68.33637237548828	-63.38688278198245	430.445281982422	105.7315292358399	-349.1157226562501	183.4546356201172	139.9603881835937	-292.3271484375001	188.4461212158203	226.9764862060547	-404.5491943359376	165.6202087402344	211.7308959960938	-240.8015136718751	51.57458496093751	198.5625610351563	-235.9131927490235	73.67923736572267	145.0923309326172	-295.1534729003907	84.20559692382814	101.5612869262695	-214.0464477539064	900.6682739257815	444.911346435547	-223.7191925048829	486.5975036621095	361.6000976562501	-193.7109680175782	498.0820312500001	235.8411712646485	-244.4657440185548	432.972625732422	365.3424072265625	-175.8973083496094	424.7077636718751	317.2438659667969	-280.673065185547	60.04681777954103	339.6207275390625	-246.1509246826173	89.52207183837892	245.3515625	-320.0327148437501	23.43700790405274	277.5416870117188	-116.6873321533204	21.60606956481934	251.2966461181641	-112.9171295166016	37.82316589355469	310.0788879394532	-157.2566528320313	18.06078720092774	368.6118469238282	-276.6481018066407	1545.471069335938	276.8560485839844	-380.3592529296876	1304.96533203125	255.8448638916016	-109.9709930419922	1264.637939453125	263.5125732421876	-153.1337127685547	1448.08740234375	282.8191528320313	-394.512176513672	1340.06982421875	144.6893615722656	-349.8302612304688	1486.415405273438	160.7395324707031	-306.3018798828126	1491.6865234375	99.36581420898436	-257.4025268554688	1489.516967773438	73.3085479736328	-286.7915954589844	1156.254516601563	-36.71682739257817	-332.1889953613282	1146.84716796875	47.36685180664059	-330.8045959472657	1136.674072265625	-11.55445003509526	-200.5090026855469	899.596618652344	13.46191787719724	-268.0817871093751	898.5151977539065	-47.30834960937504	-171.6620025634766	814.9631347656252	1.52110219001768	-272.8514404296876	814.3450317382815	-51.63837432861333	-403.4037170410158	1325.293212890625	375.3379516601562	-348.1553344726564	1462.82666015625	393.4265747070313	-312.5211181640626	1446.633056640625	461.2218933105469	-266.433807373047	1442.80078125	483.7836608886719	-268.7459411621095	1107.484497070313	563.2120361328126	-292.963592529297	1091.133911132813	464.4406433105469	-309.2203979492189	1082.137939453125	532.3715820312501	-127.9855422973634	882.7446899414065	510.7994995117189	-193.4259796142579	868.1890258789065	575.9221801757814	-78.64988708496102	799.9883422851565	531.5532836914064	-183.0390777587891	772.6333007812502	573.6586914062501	
82	0.8100000000000001	-125.9253692626954	1002.445739746094	132.7678985595703	-332.6903076171876	1023.346435546875	208.12939453125	-334.3604125976564	1023.110168457031	312.0075073242188	-133.1188049316407	1002.262390136719	386.5538330078126	-202.1393737792969	904.8554687500002	62.55067062377929	-70.614128112793	522.8937988281251	66.74419403076172	-40.48396301269534	511.1135253906251	199.7378082275391	-108.6287002563477	474.2754821777345	70.50292205810547	-39.3490676879883	433.8872985839845	108.6894149780274	-311.2919616699219	171.4058074951172	140.0613555908203	-255.6817932128907	179.9386291503907	227.8202056884766	-366.7537231445313	150.3498687744141	211.7154541015625	-195.0403442382813	47.19674301147462	199.5193481445313	-191.5919952392579	69.53859710693361	146.1688537597656	-251.2586212158204	75.88577270507814	102.2259979248047	-202.7473449707032	900.150329589844	444.9372558593751	-220.6883850097657	486.6658020019532	361.1865844726563	-189.9129180908204	497.6142883300782	235.5531463623047	-242.1823730468751	433.4122009277345	364.7870178222656	-173.4759063720704	424.2018432617189	317.0497741699219	-280.7256469726564	60.41140365600587	339.3336486816406	-245.6636810302735	89.83486175537111	245.2625579833985	-319.8812866210939	23.84321594238282	277.2163391113281	-116.4415359497071	21.46470642089844	251.5021362304688	-112.6698760986329	37.6299057006836	310.2877807617188	-157.2153778076173	17.84596633911133	368.8036193847657	-262.9200134277345	1545.745239257813	277.0389404296875	-366.8150634765626	1305.207885742188	256.72314453125	-96.54070281982428	1264.88037109375	264.1656188964844	-139.5093994140626	1448.419799804688	283.0467529296876	-381.3498535156251	1340.352783203125	145.7589263916015	-336.3744201660157	1486.444458007813	161.3969268798828	-293.0867309570313	1491.630981445313	99.9023971557617	-244.3409881591797	1489.33544921875	73.61214447021483	-276.8569030761719	1156.269775390625	-35.67323684692387	-321.8009643554688	1147.4404296875	48.71290588378903	-320.9016113281251	1137.566650390625	-10.28910923004154	-197.6831359863282	897.090270996094	13.44591522216795	-264.4855651855469	898.509460449219	-47.87798690795903	-170.6278076171875	811.8453369140627	1.250751018524149	-271.6083374023438	814.465026855469	-52.73184967041021	-389.4791870117189	1326.1279296875	376.7433471679688	-334.2723693847657	1463.476196289063	394.0105590820313	-298.5248107910157	1447.462768554688	461.7643127441407	-252.3981781005861	1443.755493164063	484.1860351562501	-252.0191345214845	1108.5517578125	564.2064208984376	-277.4055480957032	1091.89111328125	465.7336120605469	-292.6777343750001	1082.692016601563	533.6723022460939	-108.8619003295899	885.5131835937502	510.807830810547	-173.7043914794923	870.147644042969	576.3600463867189	-58.35786056518563	803.2974853515627	531.0961303710939	-162.1682739257813	774.647644042969	573.8721313476564	
